<svg width="240" height="84" viewBox="0 0 240 84" fill="none" xmlns="http://www.w3.org/2000/svg">
<path d="M54.1962 80.4797C54.1318 80.4797 53.8439 80.4797 53.3393 80.4797L52.6789 80.5068V80.3375C53.0616 80.3375 53.3258 80.2359 53.4646 80.0293C53.5764 79.8599 53.634 79.5755 53.634 79.1725V75.7554C53.634 75.332 53.5019 74.9934 53.2344 74.736C52.9668 74.4786 52.6248 74.3499 52.2048 74.3499C51.4868 74.3499 50.8332 74.6547 50.244 75.2643V79.1725C50.244 79.4908 50.2846 79.7482 50.3693 79.9446C50.481 80.2155 50.6978 80.351 51.0161 80.351H51.2261V80.5068L49.7089 80.4797C49.6344 80.4797 49.3465 80.4797 48.8521 80.4797L48.1917 80.5068L48.1781 80.3375C48.5405 80.3375 48.7843 80.2697 48.913 80.1343C49.0383 79.9988 49.1128 79.7516 49.1331 79.396V79.1725V75.6842C49.1331 75.1221 48.9774 74.841 48.6624 74.841C48.5236 74.841 48.3441 74.8681 48.1205 74.9256V74.7563C48.9841 74.4109 49.6919 74.0925 50.244 73.8013V75.1085C50.9382 74.2754 51.7612 73.8588 52.7196 73.8588C53.3292 73.8588 53.8168 74.0282 54.1894 74.3635C54.5585 74.6987 54.7448 75.1661 54.7448 75.7655V79.1623C54.7448 79.545 54.7787 79.8058 54.843 79.948C54.9548 80.1817 55.1749 80.3104 55.5034 80.3273L55.7134 80.3408V80.5102C55.5813 80.5102 55.2968 80.5 54.8565 80.4831H54.1962V80.4797Z" fill="black"/>
<path d="M63.7126 76.8253C63.4044 76.8998 63.0928 76.998 62.7847 77.12C62.1378 77.3807 61.7179 77.5873 61.5181 77.7397C61.0947 78.0479 60.8848 78.4577 60.8848 78.9623C60.8848 79.8428 61.2742 80.2831 62.0531 80.2831C62.5781 80.2831 63.1301 79.9817 63.7126 79.3822V76.8253ZM64.0242 80.7606C63.9022 80.5811 63.804 80.3305 63.7295 80.002C63.7092 79.9275 63.6821 79.7954 63.6449 79.6091C62.9235 80.3305 62.1683 80.6928 61.3826 80.6928C60.624 80.6928 60.1126 80.361 59.8518 79.6938C59.757 79.4601 59.7096 79.2332 59.7096 79.0165C59.7096 78.5559 59.9873 78.1597 60.5393 77.8176C60.8407 77.6381 61.3352 77.4383 62.0294 77.2114L63.716 76.6763V75.5621C63.716 75.132 63.6279 74.7798 63.4484 74.5055C63.2418 74.1871 62.9337 74.028 62.5205 74.028C62.2191 74.028 61.938 74.1126 61.6772 74.282C61.3758 74.4682 61.2268 74.7121 61.2268 75.0033C61.2268 75.1828 61.2674 75.4097 61.3521 75.684L60.3395 76.0091C60.3124 75.9346 60.2887 75.8161 60.2684 75.6569C60.2684 75.1422 60.624 74.6951 61.3352 74.3226C61.9549 73.9941 62.5577 73.8315 63.1504 73.8315C63.6381 73.8315 64.0275 73.9772 64.3256 74.2684C64.6202 74.5597 64.7692 74.9491 64.7692 75.4368V79.1045C64.7692 79.6294 64.9623 79.8902 65.3449 79.8902C65.4567 79.8902 65.6159 79.8428 65.8225 79.7514L65.8631 79.8631L64.0242 80.7606Z" fill="black"/>
<path d="M73.1206 80.4387L72.9377 80.6791L72.6837 80.6927C72.4128 80.713 72.1249 80.6554 71.8269 80.5234C70.9362 80.1508 70.4926 79.5006 70.4926 78.5794V74.2954H69.1583V74.0718H69.7916C70.1302 74.0617 70.4723 73.8449 70.8177 73.4216C71.1259 73.0254 71.3088 72.6427 71.3663 72.2769L71.4375 71.8096H71.5932V74.0718H73.7573L73.6862 74.2954H71.5899V78.6404C71.5899 78.8368 71.6034 78.9824 71.6305 79.0773C71.6779 79.3787 71.8168 79.6293 72.0437 79.8291C72.274 80.0323 72.5381 80.1305 72.8395 80.1305C73.0461 80.1305 73.2324 80.0831 73.4017 79.9883C73.4661 79.951 73.632 79.8393 73.8928 79.6496C73.5575 79.9409 73.3001 80.2016 73.1206 80.4387Z" fill="black"/>
<path d="M83.118 80.7472C82.9012 80.5136 82.7962 80.1478 82.7962 79.65L82.5016 79.8599C82.2307 80.0564 81.8886 80.2731 81.4754 80.5068C81.1571 80.6389 80.7812 80.7032 80.3511 80.7032C79.7313 80.7032 79.2369 80.5237 78.8677 80.1614C78.4986 79.799 78.3123 79.3113 78.3123 78.6916V75.6842C78.3123 75.1221 78.1498 74.841 77.8213 74.841C77.6892 74.841 77.5131 74.8681 77.2862 74.9256V74.7563C77.9601 74.5023 78.6679 74.184 79.4096 73.8013V78.7085C79.4096 79.2063 79.5349 79.6026 79.7889 79.904C80.0429 80.2054 80.412 80.3544 80.8997 80.3544C81.6414 80.3544 82.2645 80.036 82.7691 79.3994V75.5318C82.7691 75.0713 82.6066 74.8444 82.2781 74.8444C82.146 74.8444 81.9699 74.8714 81.743 74.929V74.7563L82.8132 74.3296C83.1146 74.2043 83.4634 74.0282 83.8664 73.8013V78.7491C83.8664 79.5111 84.0594 79.8904 84.4421 79.8904C84.5742 79.8904 84.7334 79.843 84.9196 79.7516L84.9467 79.8498L83.118 80.7472Z" fill="black"/>
<path d="M92.6141 74.5599C92.2619 74.5599 91.9198 74.7021 91.5879 74.99C91.256 75.2745 91.0901 75.5962 91.0901 75.9518V79.3452C91.0901 79.9988 91.4118 80.3273 92.0587 80.3273V80.5102C91.9367 80.5102 91.6523 80.5 91.2018 80.4831H90.5279C90.4636 80.4831 90.1757 80.4831 89.6711 80.4831L89.0107 80.5102V80.3273C89.6575 80.3273 89.9793 79.9345 89.9793 79.1454V75.6877C89.9793 75.1255 89.8235 74.8444 89.5085 74.8444C89.3697 74.8444 89.1902 74.8715 88.9667 74.929L88.9396 74.7462C89.7219 74.4651 90.4399 74.1501 91.0901 73.8047V75.6606L91.3272 75.139C91.8419 74.2856 92.4278 73.8589 93.0882 73.8589C93.3049 73.8589 93.5014 73.8927 93.691 73.9571V75.2779C93.4878 74.8004 93.1254 74.5599 92.6141 74.5599Z" fill="black"/>
<path d="M102.171 76.6288C102.171 75.965 102.046 75.3926 101.792 74.9151C101.474 74.3259 101.01 74.0278 100.4 74.0278C99.8953 74.0278 99.4483 74.3089 99.0656 74.8711C98.7202 75.3588 98.5271 75.8735 98.4899 76.4188L98.4628 76.8116H102.175V76.6288H102.171ZM103.336 77.0487H98.4594V77.2451L98.4729 77.4009C98.5475 78.2713 98.8015 78.9892 99.2316 79.5514C99.7294 80.2084 100.39 80.5369 101.213 80.5369C101.748 80.5369 102.357 80.3371 103.042 79.9341L103.099 80.0594C102.435 80.4895 101.69 80.7063 100.864 80.7063C99.8039 80.7063 98.9437 80.3811 98.2765 79.7275C97.6127 79.0773 97.2775 78.2205 97.2775 77.1605C97.2775 76.3917 97.4739 75.7211 97.8667 75.1488C98.2901 74.529 98.859 74.143 99.5804 73.9804C99.919 73.9059 100.251 73.8687 100.579 73.8687C101.47 73.8687 102.158 74.1599 102.645 74.739C103.106 75.2843 103.333 76.009 103.333 76.9166V77.0487H103.336Z" fill="black"/>
<path d="M115.216 80.4387L115.034 80.6791L114.78 80.6927C114.509 80.713 114.221 80.6554 113.923 80.5234C113.032 80.1508 112.588 79.5006 112.588 78.5794V74.2954H111.254V74.0718H111.887C112.226 74.0617 112.568 73.8449 112.913 73.4216C113.222 73.0254 113.405 72.6427 113.462 72.2769L113.533 71.8096H113.689V74.0718H115.853L115.782 74.2954H113.686V78.6404C113.686 78.8368 113.699 78.9824 113.726 79.0773C113.774 79.3787 113.913 79.6293 114.139 79.8291C114.37 80.0323 114.634 80.1305 114.935 80.1305C115.142 80.1305 115.328 80.0831 115.497 79.9883C115.562 79.951 115.728 79.8393 115.989 79.6496C115.653 79.9409 115.396 80.2016 115.216 80.4387Z" fill="black"/>
<path d="M122.613 74.0415C121.939 74.0415 121.394 74.3226 120.98 74.8814C120.604 75.386 120.418 75.9888 120.418 76.6932C120.418 77.6008 120.625 78.4238 121.038 79.1621C121.543 80.0595 122.22 80.5099 123.063 80.5099C123.805 80.5099 124.357 80.1781 124.723 79.5143C125.014 78.9894 125.16 78.3256 125.16 77.5229C125.16 76.3071 124.794 75.3521 124.062 74.6612C123.632 74.2481 123.148 74.0415 122.613 74.0415ZM122.813 80.703C121.81 80.703 120.98 80.3813 120.323 79.7412C119.666 79.0977 119.338 78.2782 119.338 77.2723C119.338 76.2326 119.666 75.4063 120.323 74.7967C120.98 74.1871 121.834 73.8823 122.884 73.8823C123.869 73.8823 124.685 74.1837 125.336 74.7832C125.986 75.3826 126.314 76.1751 126.314 77.1606C126.314 78.1833 125.986 79.0266 125.329 79.6972C124.672 80.3677 123.832 80.703 122.813 80.703Z" fill="black"/>
<path d="M138.398 74.2111C137.781 74.2111 137.189 74.5057 136.62 75.0983V80.0462C136.996 80.3476 137.467 80.4966 138.039 80.4966C138.882 80.4966 139.532 80.1139 139.993 79.3452C140.386 78.6983 140.582 77.9296 140.582 77.0389C140.582 76.2701 140.413 75.63 140.078 75.1119C139.685 74.5091 139.126 74.2111 138.398 74.2111ZM138.273 80.6626C137.751 80.6626 137.196 80.5271 136.62 80.2562V82.4304C136.62 82.8436 136.677 83.1314 136.789 83.2906C136.921 83.5073 137.182 83.6157 137.575 83.6157V83.741L136.058 83.6834C135.983 83.6834 135.695 83.6936 135.201 83.7105L134.54 83.7376V83.5988C134.916 83.5988 135.174 83.5006 135.313 83.3041C135.414 83.1551 135.475 82.8774 135.496 82.4744V82.1662V75.6842C135.496 75.1221 135.343 74.841 135.035 74.841C134.957 74.841 134.781 74.8647 134.51 74.9121V74.7563C135.181 74.5023 135.882 74.184 136.62 73.8013V74.9392C137.199 74.2178 137.924 73.8555 138.801 73.8555C139.715 73.8555 140.426 74.1535 140.941 74.7495C141.456 75.3456 141.71 76.1076 141.71 77.0355C141.71 78.0583 141.392 78.9117 140.755 79.5958C140.108 80.307 139.282 80.6626 138.273 80.6626Z" fill="black"/>
<path d="M150.834 76.6288C150.834 75.965 150.708 75.3926 150.454 74.9151C150.136 74.3259 149.672 74.0278 149.062 74.0278C148.558 74.0278 148.111 74.3089 147.728 74.8711C147.383 75.3588 147.19 75.8735 147.152 76.4188L147.125 76.8116H150.837V76.6288H150.834ZM151.999 77.0487H147.122V77.2451L147.135 77.4009C147.21 78.2713 147.464 78.9892 147.894 79.5514C148.392 80.2084 149.052 80.5369 149.875 80.5369C150.41 80.5369 151.02 80.3371 151.704 79.9341L151.761 80.0594C151.098 80.4895 150.353 80.7063 149.526 80.7063C148.466 80.7063 147.606 80.3811 146.939 79.7275C146.275 79.0773 145.94 78.2205 145.94 77.1605C145.94 76.3917 146.136 75.7211 146.529 75.1488C146.952 74.529 147.521 74.143 148.243 73.9804C148.581 73.9059 148.913 73.8687 149.242 73.8687C150.133 73.8687 150.82 74.1599 151.308 74.739C151.768 75.2843 151.995 76.009 151.995 76.9166V77.0487H151.999Z" fill="black"/>
<path d="M159.466 74.0415C158.792 74.0415 158.247 74.3226 157.834 74.8814C157.458 75.386 157.272 75.9888 157.272 76.6932C157.272 77.6008 157.478 78.4238 157.891 79.1621C158.396 80.0595 159.073 80.5099 159.916 80.5099C160.658 80.5099 161.21 80.1781 161.576 79.5143C161.867 78.9894 162.013 78.3256 162.013 77.5229C162.013 76.3071 161.647 75.3521 160.916 74.6612C160.482 74.2481 160.001 74.0415 159.466 74.0415ZM159.662 80.703C158.66 80.703 157.83 80.3813 157.173 79.7412C156.516 79.0977 156.188 78.2782 156.188 77.2723C156.188 76.2326 156.516 75.4063 157.173 74.7967C157.83 74.1871 158.684 73.8823 159.734 73.8823C160.719 73.8823 161.535 74.1837 162.186 74.7832C162.836 75.3826 163.164 76.1751 163.164 77.1606C163.164 78.1833 162.836 79.0266 162.179 79.6972C161.525 80.3677 160.685 80.703 159.662 80.703Z" fill="black"/>
<path d="M171.174 74.2111C170.557 74.2111 169.965 74.5057 169.396 75.0983V80.0462C169.772 80.3476 170.242 80.4966 170.815 80.4966C171.658 80.4966 172.308 80.1139 172.769 79.3452C173.162 78.6983 173.358 77.9296 173.358 77.0389C173.358 76.2701 173.189 75.63 172.853 75.1119C172.461 74.5091 171.902 74.2111 171.174 74.2111ZM171.048 80.6626C170.527 80.6626 169.971 80.5271 169.396 80.2562V82.4304C169.396 82.8436 169.453 83.1314 169.565 83.2906C169.697 83.5073 169.958 83.6157 170.351 83.6157V83.741L168.833 83.6834C168.759 83.6834 168.471 83.6936 167.977 83.7105L167.316 83.7376V83.5988C167.692 83.5988 167.95 83.5006 168.088 83.3041C168.19 83.1551 168.251 82.8774 168.271 82.4744V82.1662V75.6842C168.271 75.1221 168.119 74.841 167.811 74.841C167.733 74.841 167.557 74.8647 167.286 74.9121V74.7563C167.956 74.5023 168.657 74.184 169.396 73.8013V74.9392C169.975 74.2178 170.699 73.8555 171.577 73.8555C172.491 73.8555 173.202 74.1535 173.717 74.7495C174.232 75.3456 174.486 76.1076 174.486 77.0355C174.486 78.0583 174.167 78.9117 173.531 79.5958C172.884 80.307 172.058 80.6626 171.048 80.6626Z" fill="black"/>
<path d="M179.603 78.9084V71.0751C179.603 70.5231 179.43 70.2454 179.081 70.2454C179 70.2454 178.844 70.2691 178.614 70.3165L178.56 70.1472C179.257 69.8932 179.979 69.585 180.724 69.2192V79.2978C180.724 79.9921 181.042 80.3375 181.679 80.3375V80.4933L179.979 80.4527C179.586 80.4425 179.136 80.4561 178.631 80.4933L178.644 80.324C179.244 80.324 179.562 80.0192 179.6 79.413V78.9084H179.603Z" fill="black"/>
<path d="M190.708 76.6288C190.708 75.965 190.582 75.3926 190.328 74.9151C190.01 74.3259 189.546 74.0278 188.936 74.0278C188.432 74.0278 187.985 74.3089 187.602 74.8711C187.257 75.3588 187.064 75.8735 187.026 76.4188L186.999 76.8116H190.711V76.6288H190.708ZM191.876 77.0487H186.999V77.2451L187.013 77.4009C187.087 78.2713 187.341 78.9892 187.771 79.5514C188.269 80.2084 188.93 80.5369 189.753 80.5369C190.288 80.5369 190.897 80.3371 191.581 79.9341L191.639 80.0594C190.975 80.4895 190.23 80.7063 189.404 80.7063C188.344 80.7063 187.484 80.3811 186.816 79.7275C186.153 79.0773 185.817 78.2205 185.817 77.1605C185.817 76.3917 186.014 75.7211 186.407 75.1488C186.83 74.529 187.399 74.143 188.12 73.9804C188.459 73.9059 188.791 73.8687 189.119 73.8687C190.01 73.8687 190.698 74.1599 191.185 74.739C191.646 75.2843 191.873 76.009 191.873 76.9166V77.0487H191.876Z" fill="black"/>
<path fill-rule="evenodd" clip-rule="evenodd" d="M103.444 2.69892C95.6823 8.15478 93.0949 18.7109 83.0434 14.1186C93.8264 13.3905 94.3107 6.53597 101.368 2.8818C95.4994 0.473912 86.1727 2.09611 83.5819 9.76004C85.7764 7.90417 89.2342 4.16195 98.2595 3.83683C89.7862 5.72318 84.7164 10.1292 81.6922 13.7969C79.8702 1.52715 91.5202 -3.59343 103.444 2.69892Z" fill="#75B051"/>
<path d="M13.4686 7.71116C12.4188 7.71116 11.1014 7.85678 9.54012 8.15142V25.6975C11.2571 26.2834 12.9403 26.5747 14.5862 26.5747C20.1064 26.5747 22.8665 23.7604 22.8665 18.1318C22.8665 14.989 22.0977 12.5032 20.5738 10.6745C18.9346 8.70005 16.5674 7.71116 13.4686 7.71116ZM32.0205 47.1891C27.3775 47.1891 23.3203 43.8431 19.849 37.1545L16.5606 30.852C16.0221 29.792 15.5175 29.0808 15.0536 28.715C14.5422 28.1664 13.7937 27.8006 12.7777 27.6177L9.54351 27.0691V39.9552C9.54351 42.2581 9.75348 43.7584 10.1836 44.4527C10.7966 45.4382 12.0936 45.9326 14.0951 45.9326V46.4271L7.07805 46.2611C6.63779 46.2611 5.28652 46.2882 3.02087 46.3424L0 46.4237V45.8209C2.01166 45.8209 3.32567 45.3095 3.94881 44.2867C4.42293 43.518 4.66 42.0482 4.66 39.8909V13.1501C4.66 11.4331 4.49405 10.1969 4.16555 9.46882C3.65417 8.30043 2.61109 7.71454 1.03969 7.71454H0V7.00335H6.74277C7.58265 7.00335 8.84587 6.95933 10.5256 6.86789C12.2088 6.77645 13.4686 6.73242 14.3085 6.73242C23.3 6.73242 27.7974 10.0953 27.7974 16.811C27.7974 19.3341 27.1201 21.4541 25.7688 23.1711C24.4176 24.8813 22.5143 26.0125 20.0658 26.5611L18.8601 26.8354C20.2215 28.4068 21.5728 30.3643 22.9004 32.7011L26.5545 39.2339C29.213 43.9582 31.902 46.3153 34.5978 46.3153C34.8552 46.3153 35.055 46.3153 35.2006 46.3153V46.8267C34.2151 47.0705 33.1551 47.1891 32.0205 47.1891Z" fill="black"/>
<path d="M40.2466 46.3121C39.9554 46.3121 38.8378 46.3121 36.9006 46.3121L34.3234 46.4205V45.7093C35.6408 45.7093 36.5891 45.435 37.175 44.8863C37.6152 44.4833 37.8861 43.5148 37.9979 41.9806L38.0521 41.1577V27.7805C38.0521 25.586 37.4323 24.4921 36.1895 24.4921C35.8609 24.4921 35.1464 24.5835 34.0525 24.7664L34.1067 24.1094C37.3951 22.8292 40.1383 21.6067 42.3328 20.4349V39.4982C42.3328 41.5539 42.4242 42.8882 42.6071 43.5114C43.0101 44.91 43.9414 45.6585 45.4045 45.7702L46.2274 45.8244L46.1732 46.4272L40.2466 46.3121ZM40.2466 15.3346C39.3322 15.3346 38.5838 15.0061 37.9979 14.3491C37.412 13.6921 37.1208 12.9064 37.1208 11.992C37.1208 11.1522 37.4323 10.4003 38.0521 9.74332C38.6752 9.08632 39.4034 8.75781 40.2466 8.75781C41.1238 8.75781 41.8654 9.07616 42.4683 9.71623C43.0711 10.3563 43.3725 11.1149 43.3725 11.992C43.3725 12.9064 43.0812 13.6921 42.4953 14.3491C41.9095 15.0027 41.161 15.3346 40.2466 15.3346Z" fill="black"/>
<path d="M49.184 46.478L66.3474 21.969H58.6157C56.3501 21.969 54.7787 22.206 53.9015 22.6802C52.6214 23.3744 51.7984 24.7629 51.4327 26.8457C51.3582 27.286 51.3412 27.6314 51.3785 27.8888H50.9382V21.2002H71.6373L54.4739 45.7092H62.3613C68.4572 45.7092 71.4984 43.7348 71.4984 39.786H71.8811V46.4746H49.184V46.478Z" fill="black"/>
<path d="M153.17 46.2578C152.33 46.2205 151.169 46.2408 149.679 46.312C148.033 46.4203 146.891 46.4779 146.234 46.4779V45.8751C148.172 45.8751 149.452 45.401 150.072 44.4493C150.546 43.7178 150.786 42.292 150.786 40.172V27.2859H127.757V41.3031C127.757 42.9931 128.096 44.1818 128.773 44.876C129.45 45.5804 130.629 45.9259 132.309 45.9259V46.4745L124.878 46.2544L118.325 46.4745V45.9259C120.371 45.9259 121.705 45.4314 122.328 44.4459C122.802 43.6772 123.043 42.1701 123.043 39.9417V13.587C123.043 11.3586 122.806 9.86847 122.328 9.13696C121.709 8.15145 120.374 7.65701 118.325 7.65701V7L125.288 7.22013C125.728 7.22013 127.059 7.18288 129.318 7.11176L132.305 7.00339V7.66039C130.358 7.66039 129.071 8.13452 128.458 9.08616C127.991 9.81767 127.754 11.2604 127.754 13.4177V26.2462H150.783V13.5802C150.783 11.3146 150.573 9.83461 150.143 9.14035C149.53 8.15484 148.233 7.66039 146.231 7.66039V7.00339C146.952 7.00339 148.297 7.04064 150.261 7.11176L153.194 7.22013C153.523 7.22013 154.867 7.18288 157.224 7.11176L160.211 7.00339V7.66039C158.474 7.66039 157.251 7.99905 156.547 8.67638C155.842 9.35371 155.497 10.5492 155.497 12.2662V39.9011C155.497 42.204 155.717 43.7043 156.154 44.3985C156.774 45.384 158.108 45.8785 160.157 45.8785L160.211 46.4813C159.588 46.4813 158.264 46.444 156.225 46.3729L153.17 46.2578Z" fill="black"/>
<path d="M183.409 31.3429C183.409 28.7488 182.915 26.517 181.93 24.6543C180.687 22.3514 178.878 21.2 176.501 21.2C174.526 21.2 172.789 22.2973 171.292 24.4884C169.941 26.3883 169.189 28.4 169.043 30.52L168.935 32.0541H183.409V31.3429ZM187.961 32.9888H168.935V33.7576L168.989 34.3604C169.28 37.7606 170.269 40.5579 171.949 42.7491C173.886 45.3094 176.463 46.5861 179.681 46.5861C181.764 46.5861 184.141 45.8004 186.81 44.229L187.03 44.7235C184.436 46.4033 181.53 47.2465 178.313 47.2465C174.181 47.2465 170.818 45.9765 168.224 43.4366C165.63 40.8966 164.329 37.5608 164.329 33.4291C164.329 30.4319 165.098 27.8175 166.632 25.5891C168.278 23.1778 170.506 21.6606 173.321 21.0374C174.638 20.7462 175.935 20.5972 177.215 20.5972C180.687 20.5972 183.376 21.7317 185.276 23.9973C187.067 26.1174 187.961 28.952 187.961 32.4978V32.9888Z" fill="black"/>
<path d="M206.239 23.2827C204.86 23.2827 203.526 23.8415 202.236 24.9557C200.949 26.0597 200.299 27.3128 200.299 28.7013V41.9328C200.299 44.483 201.558 45.7631 204.081 45.7631V46.4743C203.607 46.4743 202.49 46.4371 200.735 46.3659H198.104C197.847 46.3659 196.732 46.3659 194.758 46.3659L192.181 46.4743V45.7631C194.704 45.7631 195.964 44.229 195.964 41.1573V27.6718C195.964 25.4772 195.351 24.3833 194.128 24.3833C193.59 24.3833 192.885 24.4917 192.018 24.7119L191.91 24.0007C194.961 22.9034 197.759 21.6808 200.299 20.3262V27.5634L201.223 25.5348C203.225 22.2091 205.517 20.5463 208.095 20.5463C208.934 20.5463 209.713 20.675 210.442 20.929V26.0834C209.649 24.2174 208.24 23.2827 206.239 23.2827Z" fill="black"/>
<path d="M226.894 22.0771C224.262 22.0771 221.959 23.2116 219.985 25.4875V44.9978C221.631 46.0578 223.422 46.5895 225.36 46.5895C228.648 46.5895 231.208 45.2552 233.037 42.5764C234.683 40.2294 235.506 37.3406 235.506 33.8931C235.506 30.6656 234.886 28.0071 233.643 25.9243C232.136 23.3573 229.891 22.0771 226.894 22.0771ZM226.233 46.9722C224.99 46.9722 223.673 46.8435 222.285 46.5895L215.762 45.3805V10.1697C215.762 7.69413 215.068 6.45123 213.679 6.45123C213.351 6.45123 212.728 6.54267 211.817 6.72555L211.651 6.06855C214.539 5.08304 217.316 3.87401 219.985 2.44824V24.7661C221.594 23.3573 222.891 22.3887 223.88 21.8773C225.268 21.1356 226.823 20.7631 228.54 20.7631C232.048 20.7631 234.835 21.8604 236.901 24.0515C238.967 26.2461 240 29.1145 240 32.6603C240 36.9749 238.774 40.436 236.326 43.0505C233.874 45.665 230.511 46.9722 226.233 46.9722Z" fill="black"/>
<path d="M90.5821 32.1116C89.3765 32.4029 88.1708 32.7889 86.9618 33.2631C84.4388 34.2858 82.7962 35.0919 82.0275 35.6744C80.3816 36.88 79.5586 38.4717 79.5586 40.4461C79.5586 43.8835 81.0758 45.6006 84.1103 45.6006C86.1558 45.6006 88.3131 44.4322 90.5821 42.092V32.1116ZM91.7877 47.4632C91.3136 46.7689 90.9275 45.78 90.6363 44.5033C90.5618 44.212 90.4534 43.7007 90.3078 42.9691C87.4935 45.7834 84.5505 47.1923 81.4788 47.1923C78.5189 47.1923 76.5242 45.8952 75.5015 43.2909C75.1357 42.3765 74.9528 41.4993 74.9528 40.6493C74.9528 38.8578 76.0298 37.3033 78.187 35.9791C79.3554 35.2849 81.2926 34.4992 83.9985 33.6221L90.5787 31.5291V27.1841C90.5787 25.5009 90.2299 24.1327 89.5356 23.0626C88.733 21.8197 87.524 21.1999 85.9153 21.1999C84.7469 21.1999 83.6497 21.5284 82.6269 22.1956C81.4585 22.9271 80.8726 23.8686 80.8726 25.0099C80.8726 25.7041 81.0386 26.5914 81.3671 27.6616L77.4183 28.9316C77.3099 28.6403 77.2185 28.1831 77.144 27.56C77.144 25.5483 78.5325 23.8144 81.3095 22.3514C83.7208 21.0712 86.0813 20.4312 88.3842 20.4312C90.2841 20.4312 91.8114 20.9967 92.9629 22.1312C94.1143 23.2658 94.6901 24.783 94.6901 26.6829V40.9947C94.6901 43.0403 95.4385 44.0664 96.9388 44.0664C97.379 44.0664 97.9988 43.8835 98.8014 43.5178L98.9674 43.958L91.7877 47.4632Z" fill="black"/>
<path d="M204.129 59.584H35.8677V60.7828H204.129V59.584Z" fill="#75B051"/>
</svg>
